<svg width="1920" height="1040" viewBox="0 0 1920 1040" fill="none" xmlns="http://www.w3.org/2000/svg">
<path d="M1925 883.08L1860.93 903.305C1796.86 923.531 1667.64 997.583 1539.5 988.002C1412.38 977.357 1297.54 944.872 1169.41 904.42C1041.27 863.968 792.636 795.32 664.5 865.578C537.381 936.901 514.542 947.548 386.407 1008.23C258.271 1068.9 130.135 1028.45 66.0676 1008.23L2 988L1.99963 950.272L66.0673 970.498C130.135 990.724 258.271 1031.18 386.406 970.498C514.542 909.821 537.381 899.174 664.5 827.851C792.635 757.593 1041.27 826.241 1169.41 866.693C1297.54 907.144 1412.38 939.63 1539.5 950.275C1667.64 959.856 1796.86 885.804 1860.93 865.578L1925 845.352L1925 883.08Z" fill="#E7F8FC"/>
<path fill-rule="evenodd" clip-rule="evenodd" d="M1934 864.405L1869.93 883.086C1805.86 901.768 1676.64 970.165 1548.5 961.316C1421.38 951.484 1306.54 921.478 1178.41 884.115C1005.5 840.43 746.5 815.69 564.5 898C433.954 957.04 512.543 923.953 384.407 979.997C256.272 1036.04 128.136 998.679 64.0679 979.997L0.000244141 961.316V-1.49988H64.068C128.136 -1.49988 256.272 -1.49988 384.407 -1.49988C512.543 -1.49988 640.679 -1.49988 767.798 -1.49988C895.933 -1.49988 1024.07 -1.49988 1152.2 -1.49988C1280.34 -1.49988 1408.48 -1.49988 1535.59 -1.49988C1663.73 -1.49988 1791.87 -1.49988 1855.93 -1.49988H1920L1934 864.405Z" fill="url(#paint0_linear_2448_2095)"/>
<path fill-rule="evenodd" clip-rule="evenodd" d="M1920 470L1867.2 479.583C1812.8 489.167 1707.2 508.333 1600 508.333C1492.8 508.333 1387.2 489.167 1280 479.583C1172.8 470 1067.2 470 960 498.75C852.8 527.5 747.2 585 640 613.75C532.8 642.5 427.2 642.5 320 632.917C212.8 623.333 107.2 604.167 52.7999 594.583L0 585V815H52.7999C107.2 815 212.8 815 320 815C427.2 815 532.8 815 640 815C747.2 815 852.8 815 960 815C1067.2 815 1172.8 815 1280 815C1387.2 815 1492.8 815 1600 815C1707.2 815 1812.8 815 1867.2 815H1920V470Z" fill="url(#paint1_linear_2448_2095)" fill-opacity="0.2"/>
<path fill-rule="evenodd" clip-rule="evenodd" d="M2469 127.75L2382.2 176.708C2295.4 225.667 2121.8 323.583 1948.2 313.792C1774.6 304 1601 186.5 1427.4 157.125C1253.8 127.75 1080.2 186.5 906.6 225.667C733 264.833 559.4 284.417 385.8 255.042C212.2 225.667 38.6003 147.333 -48.1997 108.167L-135 69V539H-48.1997C38.6003 539 212.2 539 385.8 539C559.4 539 733 539 906.6 539C1080.2 539 1253.8 539 1427.4 539C1601 539 1774.6 539 1948.2 539C2121.8 539 2295.4 539 2382.2 539H2469V127.75Z" fill="url(#paint2_linear_2448_2095)" fill-opacity="0.2"/>
<circle cx="545" cy="244" r="40" fill="white" fill-opacity="0.1"/>
<circle cx="1662" cy="510" r="40" fill="white" fill-opacity="0.1"/>
<circle cx="1192" cy="575" r="25" fill="white" fill-opacity="0.1"/>
<circle cx="265" cy="874" r="25" fill="white" fill-opacity="0.1"/>
<circle cx="650" cy="615" r="15" fill="white" fill-opacity="0.1"/>
<circle cx="975" cy="114" r="15" fill="white" fill-opacity="0.1"/>
<circle cx="1658" cy="510" r="15" fill="white" fill-opacity="0.1"/>
<circle cx="570" cy="269" r="25" fill="white" fill-opacity="0.1"/>
<defs>
<linearGradient id="paint0_linear_2448_2095" x1="960" y1="40.0003" x2="960" y2="1323" gradientUnits="userSpaceOnUse">
<stop stop-color="#002A7C"/>
<stop offset="0.619792" stop-color="#009ABB"/>
<stop offset="1" stop-color="white"/>
</linearGradient>
<linearGradient id="paint1_linear_2448_2095" x1="960" y1="470" x2="960" y2="815" gradientUnits="userSpaceOnUse">
<stop stop-color="#60E3FF"/>
<stop offset="1" stop-color="#0099FF" stop-opacity="0"/>
</linearGradient>
<linearGradient id="paint2_linear_2448_2095" x1="1167" y1="69" x2="1167" y2="539" gradientUnits="userSpaceOnUse">
<stop stop-color="#0090FF"/>
<stop offset="1" stop-color="#0099FF" stop-opacity="0"/>
</linearGradient>
</defs>
</svg>
