<svg width="131" height="40" viewBox="0 0 131 40" fill="none" xmlns="http://www.w3.org/2000/svg">
<path d="M17.1224 2.8928C21.1441 7.11959 29.4669 16.584 29.4669 25.6C29.4669 28.2356 28.5651 30.6873 27.3184 33.0667L23.2901 28.9075C23.6571 27.8774 23.8247 27.1148 23.8272 25.6C23.8272 19.3596 19.773 14.3615 17.1224 11.0239V2.8928Z" fill="white"/>
<path d="M4.46456 35.6385C7.0268 38.3039 11.3413 40 14.9649 40C18.5884 40 22.6607 38.6659 25.4385 35.7333C25.8151 35.3358 25.96 35.2021 26.2442 34.8233L22.2143 30.8492C22.2143 30.8492 21.9275 31.2764 21.7129 31.5707C20.2058 33.6373 17.6519 34.6715 14.9649 34.6667C12.2779 34.6618 9.81266 33.8142 8.24193 31.5707L7.7569 30.8492L3.74798 34.8233C3.97599 35.1066 4.21495 35.3788 4.46456 35.6385Z" fill="white"/>
<path d="M14.9649 0C14.9649 0 0.462891 12.6709 0.462891 25.6C0.731446 30.9333 2.51992 33.0129 2.51992 33.0129L6.80372 28.9075C6.80372 28.9075 6.27252 27.2 6.27252 25.6C6.27252 18.0593 10.5651 12.6423 13.434 9.27599L13.4717 9.2318C14.0762 8.52245 14.658 7.7698 14.9649 7.33891V0Z" fill="white"/>
<path d="M49.7232 10.0608C49.7232 10.7435 49.5456 11.318 49.1904 11.7845C48.8352 12.2396 48.354 12.5867 47.7467 12.8256C47.1508 13.0645 46.4977 13.184 45.7873 13.184H39.892V1.06665H46.4232C46.9961 1.06665 47.4889 1.22025 47.9014 1.52745C48.3253 1.82327 48.6462 2.21012 48.8639 2.68798C49.093 3.15447 49.2076 3.64372 49.2076 4.15572C49.2076 4.73598 49.0587 5.28781 48.7607 5.81118C48.4628 6.33456 48.0274 6.72141 47.4545 6.97172C48.1534 7.17652 48.7034 7.5463 49.1045 8.08105C49.517 8.61581 49.7232 9.27572 49.7232 10.0608ZM47.3342 9.61705C47.3342 9.30985 47.2711 9.03678 47.1451 8.79785C47.0191 8.54754 46.8472 8.35412 46.6295 8.21758C46.4232 8.06967 46.1826 7.99572 45.9076 7.99572H42.2638V11.1872H45.7873C46.0738 11.1872 46.3316 11.1189 46.5607 10.9824C46.8014 10.8345 46.9904 10.6411 47.1279 10.4021C47.2654 10.1632 47.3342 9.9015 47.3342 9.61705ZM42.2638 3.08052V6.13545H45.4264C45.6899 6.13545 45.9305 6.07287 46.1482 5.94772C46.3659 5.82256 46.5378 5.64621 46.6639 5.41865C46.8014 5.1911 46.8701 4.91803 46.8701 4.59945C46.8701 4.29225 46.8071 4.02487 46.681 3.79732C46.5665 3.56976 46.406 3.39341 46.1998 3.26825C46.005 3.1431 45.7816 3.08052 45.5295 3.08052H42.2638Z" fill="white"/>
<path d="M55.5101 13.3547C54.7767 13.3547 54.1179 13.2352 53.5335 12.9963C52.9491 12.7459 52.4507 12.4046 52.0382 11.9723C51.6371 11.5399 51.3278 11.045 51.1101 10.4875C50.8923 9.92994 50.7835 9.34398 50.7835 8.72958C50.7835 8.10381 50.8923 7.51216 51.1101 6.95465C51.3278 6.39714 51.6371 5.90221 52.0382 5.46985C52.4507 5.0375 52.9491 4.70185 53.5335 4.46292C54.1179 4.21261 54.7767 4.08745 55.5101 4.08745C56.2434 4.08745 56.8965 4.21261 57.4694 4.46292C58.0538 4.70185 58.5523 5.0375 58.9648 5.46985C59.3773 5.90221 59.6866 6.39714 59.8929 6.95465C60.1106 7.51216 60.2194 8.10381 60.2194 8.72958C60.2194 9.34398 60.1106 9.92994 59.8929 10.4875C59.6866 11.045 59.3773 11.5399 58.9648 11.9723C58.5637 12.4046 58.071 12.7459 57.4866 12.9963C56.9023 13.2352 56.2434 13.3547 55.5101 13.3547ZM53.1554 8.72958C53.1554 9.25296 53.2585 9.71945 53.4647 10.1291C53.671 10.5273 53.9517 10.8402 54.3069 11.0677C54.6621 11.2953 55.0632 11.4091 55.5101 11.4091C55.9455 11.4091 56.3408 11.2953 56.696 11.0677C57.0512 10.8288 57.3319 10.5102 57.5382 10.112C57.7559 9.70238 57.8648 9.2359 57.8648 8.71252C57.8648 8.20052 57.7559 7.73972 57.5382 7.33012C57.3319 6.92052 57.0512 6.60194 56.696 6.37438C56.3408 6.14683 55.9455 6.03305 55.5101 6.03305C55.0632 6.03305 54.6621 6.15252 54.3069 6.39145C53.9517 6.61901 53.671 6.93758 53.4647 7.34718C53.2585 7.74541 53.1554 8.20621 53.1554 8.72958Z" fill="white"/>
<path d="M61.0349 15.3515V11.1872H61.2755C61.5047 11.1872 61.7167 11.1246 61.9115 10.9995C62.1177 10.8743 62.2953 10.6638 62.4443 10.368C62.6047 10.0608 62.7308 9.63981 62.8224 9.10505C62.9255 8.5703 62.9943 7.88763 63.0287 7.05705L63.1318 4.24105H69.8865V11.1872H71.1412V15.3515H69.1302V13.184H63.063V15.3515H61.0349ZM64.1802 11.1872H67.5834V6.16958H65.1427L65.0912 7.27892C65.0568 8.02985 64.9995 8.66701 64.9193 9.19038C64.8506 9.70238 64.7532 10.1234 64.6271 10.4533C64.5125 10.7719 64.3636 11.0165 64.1802 11.1872Z" fill="white"/>
<path d="M76.7931 13.3547C76.0597 13.3547 75.4009 13.2352 74.8165 12.9963C74.2321 12.7459 73.7337 12.4046 73.3212 11.9723C72.9201 11.5399 72.6108 11.045 72.3931 10.4875C72.1754 9.92994 72.0665 9.34398 72.0665 8.72958C72.0665 8.10381 72.1754 7.51216 72.3931 6.95465C72.6108 6.39714 72.9201 5.90221 73.3212 5.46985C73.7337 5.0375 74.2321 4.70185 74.8165 4.46292C75.4009 4.21261 76.0597 4.08745 76.7931 4.08745C77.5264 4.08745 78.1795 4.21261 78.7524 4.46292C79.3368 4.70185 79.8353 5.0375 80.2478 5.46985C80.6603 5.90221 80.9696 6.39714 81.1759 6.95465C81.3936 7.51216 81.5025 8.10381 81.5025 8.72958C81.5025 9.34398 81.3936 9.92994 81.1759 10.4875C80.9696 11.045 80.6603 11.5399 80.2478 11.9723C79.8467 12.4046 79.354 12.7459 78.7696 12.9963C78.1853 13.2352 77.5264 13.3547 76.7931 13.3547ZM74.4384 8.72958C74.4384 9.25296 74.5415 9.71945 74.7478 10.1291C74.954 10.5273 75.2347 10.8402 75.5899 11.0677C75.9451 11.2953 76.3462 11.4091 76.7931 11.4091C77.2285 11.4091 77.6238 11.2953 77.979 11.0677C78.3342 10.8288 78.6149 10.5102 78.8212 10.112C79.0389 9.70238 79.1478 9.2359 79.1478 8.71252C79.1478 8.20052 79.0389 7.73972 78.8212 7.33012C78.6149 6.92052 78.3342 6.60194 77.979 6.37438C77.6238 6.14683 77.2285 6.03305 76.7931 6.03305C76.3462 6.03305 75.9451 6.15252 75.5899 6.39145C75.2347 6.61901 74.954 6.93758 74.7478 7.34718C74.5415 7.74541 74.4384 8.20621 74.4384 8.72958Z" fill="white"/>
<path d="M83.057 13.184V4.24105H85.3601V7.62025H86.1335L88.5742 4.24105H91.0836L87.8867 8.55892L91.4273 13.184H88.7976L86.0992 9.63412H85.3601V13.184H83.057Z" fill="white"/>
<path d="M92.1566 10.5387C92.1566 9.95839 92.317 9.45207 92.6378 9.01972C92.9701 8.57598 93.4285 8.23465 94.0128 7.99572C94.5972 7.75678 95.2675 7.63732 96.0238 7.63732C96.4019 7.63732 96.7858 7.66576 97.1753 7.72265C97.5649 7.77954 97.9029 7.87056 98.1894 7.99572V7.51785C98.1894 6.94896 98.0175 6.51092 97.6738 6.20372C97.3415 5.89652 96.843 5.74292 96.1785 5.74292C95.6857 5.74292 95.216 5.82825 94.7691 5.99892C94.3222 6.16958 93.8524 6.4199 93.3597 6.74985L92.6206 5.24798C93.2165 4.86114 93.8238 4.57101 94.4425 4.37758C95.0727 4.18416 95.7316 4.08745 96.4191 4.08745C97.7024 4.08745 98.6993 4.40603 99.4097 5.04318C100.132 5.68034 100.493 6.59056 100.493 7.77385V10.624C100.493 10.8629 100.533 11.0336 100.613 11.136C100.705 11.2384 100.848 11.301 101.043 11.3237V13.184C100.836 13.2181 100.647 13.2466 100.475 13.2693C100.315 13.2921 100.177 13.3035 100.063 13.3035C99.6045 13.3035 99.255 13.2011 99.0144 12.9963C98.7852 12.7915 98.642 12.5411 98.5847 12.2453L98.5331 11.7845C98.1436 12.2851 97.6566 12.672 97.0722 12.9451C96.4878 13.2181 95.892 13.3547 95.2847 13.3547C94.6889 13.3547 94.1503 13.2352 93.6691 12.9963C93.1993 12.7459 92.8269 12.4103 92.5519 11.9893C92.2883 11.557 92.1566 11.0734 92.1566 10.5387ZM97.7597 10.9995C97.8857 10.8629 97.9889 10.7264 98.0691 10.5899C98.1493 10.4533 98.1894 10.3282 98.1894 10.2144V9.30985C97.9144 9.19607 97.6165 9.11074 97.2956 9.05385C96.9748 8.98558 96.6712 8.95145 96.3847 8.95145C95.7889 8.95145 95.2962 9.0823 94.9066 9.34398C94.5285 9.5943 94.3394 9.92994 94.3394 10.3509C94.3394 10.5785 94.4024 10.7947 94.5285 10.9995C94.6545 11.2043 94.8378 11.3692 95.0785 11.4944C95.3191 11.6195 95.6055 11.6821 95.9378 11.6821C96.2816 11.6821 96.6196 11.6195 96.9519 11.4944C97.2842 11.3579 97.5535 11.1929 97.7597 10.9995Z" fill="white"/>
<path d="M102.645 13.184V4.24105H104.948V7.65438H108.592V4.24105H110.895V13.184H108.592V9.56585H104.948V13.184H102.645Z" fill="white"/>
<path d="M112.382 10.5387C112.382 9.95839 112.543 9.45207 112.863 9.01972C113.196 8.57598 113.654 8.23465 114.238 7.99572C114.823 7.75678 115.493 7.63732 116.249 7.63732C116.627 7.63732 117.011 7.66576 117.401 7.72265C117.79 7.77954 118.129 7.87056 118.415 7.99572V7.51785C118.415 6.94896 118.243 6.51092 117.899 6.20372C117.567 5.89652 117.069 5.74292 116.404 5.74292C115.911 5.74292 115.442 5.82825 114.995 5.99892C114.548 6.16958 114.078 6.4199 113.585 6.74985L112.846 5.24798C113.442 4.86114 114.049 4.57101 114.668 4.37758C115.298 4.18416 115.957 4.08745 116.645 4.08745C117.928 4.08745 118.925 4.40603 119.635 5.04318C120.357 5.68034 120.718 6.59056 120.718 7.77385V10.624C120.718 10.8629 120.758 11.0336 120.838 11.136C120.93 11.2384 121.073 11.301 121.268 11.3237V13.184C121.062 13.2181 120.873 13.2466 120.701 13.2693C120.54 13.2921 120.403 13.3035 120.288 13.3035C119.83 13.3035 119.481 13.2011 119.24 12.9963C119.011 12.7915 118.868 12.5411 118.81 12.2453L118.759 11.7845C118.369 12.2851 117.882 12.672 117.298 12.9451C116.713 13.2181 116.118 13.3547 115.51 13.3547C114.914 13.3547 114.376 13.2352 113.895 12.9963C113.425 12.7459 113.052 12.4103 112.777 11.9893C112.514 11.557 112.382 11.0734 112.382 10.5387ZM117.985 10.9995C118.111 10.8629 118.214 10.7264 118.295 10.5899C118.375 10.4533 118.415 10.3282 118.415 10.2144V9.30985C118.14 9.19607 117.842 9.11074 117.521 9.05385C117.2 8.98558 116.897 8.95145 116.61 8.95145C116.014 8.95145 115.522 9.0823 115.132 9.34398C114.754 9.5943 114.565 9.92994 114.565 10.3509C114.565 10.5785 114.628 10.7947 114.754 10.9995C114.88 11.2043 115.063 11.3692 115.304 11.4944C115.545 11.6195 115.831 11.6821 116.163 11.6821C116.507 11.6821 116.845 11.6195 117.177 11.4944C117.51 11.3579 117.779 11.1929 117.985 10.9995Z" fill="white"/>
<path d="M122.217 13.3035V11.2725C122.492 11.2611 122.739 11.1929 122.956 11.0677C123.174 10.9426 123.363 10.7321 123.523 10.4363C123.695 10.1291 123.827 9.70238 123.919 9.15625C124.022 8.61012 124.091 7.91038 124.125 7.05705L124.245 4.24105H131V13.184H128.697V6.23785H126.273L126.239 7.27892C126.193 8.45083 126.079 9.42363 125.895 10.1973C125.712 10.971 125.454 11.5854 125.122 12.0405C124.801 12.4843 124.4 12.8028 123.919 12.9963C123.437 13.1897 122.87 13.2921 122.217 13.3035Z" fill="white"/>
<path d="M40.3732 38.784V20.608H48.185C49.0615 20.608 49.8607 20.7872 50.5826 21.1456C51.3217 21.4869 51.9576 21.9563 52.4904 22.5536C53.0232 23.1339 53.4357 23.7909 53.7279 24.5248C54.0201 25.2587 54.1662 26.0096 54.1662 26.7776C54.1662 27.8187 53.917 28.8085 53.4186 29.7472C52.9373 30.6859 52.2584 31.4539 51.3818 32.0512C50.5225 32.6315 49.4998 32.9216 48.3139 32.9216H44.6014V38.784H40.3732ZM44.6014 29.2608H48.056C48.3826 29.2608 48.6834 29.1669 48.9584 28.9792C49.2334 28.7915 49.4568 28.5099 49.6287 28.1344C49.8006 27.7589 49.8865 27.2981 49.8865 26.752C49.8865 26.1888 49.7834 25.728 49.5771 25.3696C49.3881 24.9941 49.1389 24.7211 48.8295 24.5504C48.5373 24.3797 48.2279 24.2944 47.9014 24.2944H44.6014V29.2608Z" fill="white"/>
<path d="M56.4362 38.784V20.608H64.6862C65.5456 20.608 66.3362 20.7872 67.0581 21.1456C67.7971 21.4869 68.4331 21.9563 68.9659 22.5536C69.4987 23.1339 69.9112 23.7909 70.2034 24.5248C70.5128 25.2587 70.6675 26.0011 70.6675 26.752C70.6675 27.5029 70.5471 28.2197 70.3065 28.9024C70.0659 29.568 69.7221 30.1739 69.2753 30.72C68.8284 31.2491 68.2956 31.6843 67.6768 32.0256L71.6987 38.784H67.0323L63.526 32.9216H60.6643V38.784H56.4362ZM60.6643 29.2608H64.5315C64.8753 29.2608 65.176 29.1584 65.4339 28.9536C65.7089 28.7317 65.9323 28.4331 66.1042 28.0576C66.276 27.6821 66.362 27.2469 66.362 26.752C66.362 26.2571 66.2589 25.8304 66.0526 25.472C65.8635 25.0965 65.6229 24.8064 65.3307 24.6016C65.0385 24.3968 64.7292 24.2944 64.4026 24.2944H60.6643V29.2608Z" fill="white"/>
<path d="M81.5494 38.9376C80.1744 38.9376 78.9283 38.6816 77.8111 38.1696C76.7111 37.6405 75.7572 36.9408 74.9494 36.0704C74.1587 35.1829 73.5486 34.1931 73.1189 33.1008C72.6892 31.9915 72.4744 30.848 72.4744 29.6704C72.4744 28.4587 72.6978 27.3067 73.1447 26.2144C73.6087 25.1221 74.2447 24.1493 75.0525 23.296C75.8775 22.4256 76.8486 21.7429 77.9658 21.248C79.083 20.753 80.3033 20.5056 81.6267 20.5056C82.9845 20.5056 84.2134 20.7701 85.3134 21.2992C86.4306 21.8112 87.3846 22.5109 88.1752 23.3984C88.983 24.2859 89.6017 25.2843 90.0314 26.3936C90.4611 27.4859 90.676 28.6037 90.676 29.7472C90.676 30.9589 90.4525 32.1109 90.0056 33.2032C89.5588 34.2955 88.9228 35.2768 88.0978 36.1472C87.2728 37.0005 86.3017 37.6832 85.1845 38.1952C84.0845 38.6901 82.8728 38.9376 81.5494 38.9376ZM76.7798 29.7216C76.7798 30.4213 76.883 31.104 77.0892 31.7696C77.2955 32.4181 77.5962 32.9984 77.9916 33.5104C78.4041 34.0224 78.9111 34.432 79.5127 34.7392C80.1142 35.0464 80.8017 35.2 81.5752 35.2C82.383 35.2 83.0877 35.0464 83.6892 34.7392C84.2908 34.4149 84.7892 33.9883 85.1845 33.4592C85.5799 32.9301 85.872 32.3413 86.0611 31.6928C86.2674 31.0272 86.3705 30.3531 86.3705 29.6704C86.3705 28.9707 86.2674 28.2965 86.0611 27.648C85.8549 26.9995 85.5455 26.4192 85.133 25.9072C84.7205 25.3781 84.2135 24.9685 83.6119 24.6784C83.0103 24.3883 82.3314 24.2432 81.5752 24.2432C80.7673 24.2432 80.0627 24.3968 79.4611 24.704C78.8767 25.0112 78.3783 25.4293 77.9658 25.9584C77.5705 26.4704 77.2697 27.0592 77.0634 27.7248C76.8744 28.3733 76.7798 29.0389 76.7798 29.7216Z" fill="white"/>
</svg>
